<svg width="138" height="52" viewBox="0 0 138 52" fill="none" xmlns="http://www.w3.org/2000/svg">
<path d="M17.837 14.909C17.3747 13.9058 17.8132 12.7178 18.8164 12.2555L19.7246 11.837C20.7278 11.3748 21.9158 11.8132 22.3781 12.8164L24.8892 18.2657C25.3514 19.2689 24.9129 20.4569 23.9098 20.9191L23.0015 21.3376C21.9984 21.7999 20.8104 21.3614 20.3481 20.3583L17.837 14.909Z" fill="white"/>
<rect x="3" y="14.556" width="11.1261" height="22.2521" rx="2" transform="rotate(-13.281 3 14.556)" fill="white"/>
<path d="M43.4062 22.9062C43.4479 21.4688 43.4271 20.0312 43.3438 18.5938C43.2812 17.1354 43.1979 15.6875 43.0938 14.25C43.0104 12.7917 42.9271 11.3438 42.8438 9.90625C42.7812 8.44792 42.7812 7 42.8438 5.5625C42.6146 5.625 42.2604 5.71875 41.7812 5.84375C41.3021 5.94792 40.7604 6.07292 40.1562 6.21875C39.5521 6.36458 38.9062 6.52083 38.2188 6.6875C37.5521 6.83333 36.9167 6.97917 36.3125 7.125C35.7083 7.27083 35.1667 7.40625 34.6875 7.53125C34.2083 7.63542 33.8542 7.70833 33.625 7.75C33.3333 7.8125 33.0417 7.78125 32.75 7.65625C32.4792 7.51042 32.2292 7.35417 32 7.1875L33.0938 6.125C36.3854 5.8125 39.625 5.17708 42.8125 4.21875C46 3.23958 49.0833 2.0625 52.0625 0.6875H53.6875C53.7917 0.854167 53.7917 1.03125 53.6875 1.21875C53.6042 1.40625 53.4792 1.58333 53.3125 1.75C53.1458 1.89583 52.9792 2.03125 52.8125 2.15625L52.5938 2.3125L45.0312 5.03125C45.0104 5.03125 44.9896 5.28125 44.9688 5.78125C44.9688 6.28125 44.9688 6.875 44.9688 7.5625C44.9688 8.25 44.9688 8.96875 44.9688 9.71875C44.9896 10.4479 45.0104 11.0521 45.0312 11.5312C45.0312 11.6979 45.0417 12.0625 45.0625 12.625C45.1042 13.1875 45.1354 13.8438 45.1562 14.5938C45.1979 15.3229 45.2396 16.1042 45.2812 16.9375C45.3229 17.7708 45.3646 18.5625 45.4062 19.3125C45.4479 20.0625 45.4792 20.7188 45.5 21.2812C45.5208 21.8229 45.5417 22.1875 45.5625 22.375C45.5625 22.7292 45.4583 23.0521 45.25 23.3438C45.0625 23.6354 44.8438 23.8333 44.5938 23.9375C44.3438 24.0417 44.0938 24.0312 43.8438 23.9062C43.6146 23.7604 43.4688 23.4271 43.4062 22.9062ZM55.2578 23.6016C54.9453 22.9453 54.7734 22.2812 54.7422 21.6094C54.7266 20.9375 54.7656 20.25 54.8594 19.5469C54.875 19.3281 54.9141 19 54.9766 18.5625C55.0391 18.125 55.1094 17.6406 55.1875 17.1094C55.2656 16.5781 55.3516 16.0156 55.4453 15.4219C55.5391 14.8281 55.625 14.2656 55.7031 13.7344C55.7812 13.2031 55.8516 12.7344 55.9141 12.3281C55.9922 11.9062 56.0469 11.5938 56.0781 11.3906C56.2031 10.7344 56.3359 10.1797 56.4766 9.72656C56.6328 9.25781 56.8359 8.89844 57.0859 8.64844C57.3516 8.39844 57.6875 8.26562 58.0938 8.25C58.5156 8.23438 59.0547 8.33594 59.7109 8.55469C59.7891 8.57031 59.875 8.63281 59.9688 8.74219C60.0625 8.83594 60.1172 8.90625 60.1328 8.95312C60.1641 9.15625 60.2188 9.46875 60.2969 9.89062C60.3906 10.3125 60.4922 10.7969 60.6016 11.3438C60.7109 11.875 60.8203 12.4375 60.9297 13.0312C61.0547 13.6094 61.1719 14.1719 61.2812 14.7188C61.3906 15.25 61.4844 15.7266 61.5625 16.1484C61.6562 16.5703 61.7266 16.8828 61.7734 17.0859C62.0078 18.1953 62.2969 18.9688 62.6406 19.4062C62.9844 19.8281 63.3516 20.0469 63.7422 20.0625C64.1328 20.0781 64.5312 19.9531 64.9375 19.6875C65.3594 19.4062 65.7734 19.1172 66.1797 18.8203C66.5859 18.5078 66.9688 18.2422 67.3281 18.0234C67.6875 17.8047 68 17.7656 68.2656 17.9062C68.2656 18.2031 68.1953 18.4922 68.0547 18.7734C67.9141 19.0547 67.7422 19.3203 67.5391 19.5703C67.3516 19.8047 67.1406 20.0234 66.9062 20.2266C66.6719 20.4297 66.4531 20.6016 66.25 20.7422C65.375 21.3203 64.6406 21.625 64.0469 21.6562C63.4688 21.6875 62.9766 21.5547 62.5703 21.2578C62.1641 20.9609 61.8359 20.5547 61.5859 20.0391C61.3359 19.5234 61.1094 19 60.9062 18.4688C60.7188 17.9375 60.5312 17.4688 60.3438 17.0625C60.1719 16.6406 59.9609 16.375 59.7109 16.2656C59.6641 16.4688 59.5625 16.8203 59.4062 17.3203C59.2656 17.8203 59.1094 18.3516 58.9375 18.9141C58.7656 19.4766 58.6016 20.0078 58.4453 20.5078C58.2891 21.0078 58.1797 21.3594 58.1172 21.5625C58.0859 21.6406 58.0156 21.7891 57.9062 22.0078C57.8125 22.2266 57.6875 22.4688 57.5312 22.7344C57.375 22.9844 57.1953 23.2344 56.9922 23.4844C56.8047 23.7188 56.6094 23.8984 56.4062 24.0234C56.2031 24.1641 56 24.2109 55.7969 24.1641C55.5938 24.1172 55.4141 23.9297 55.2578 23.6016ZM56.4766 16.6875C56.4453 16.875 56.4219 17.2188 56.4062 17.7188C56.4062 18.2188 56.4062 18.75 56.4062 19.3125C56.4062 19.875 56.4062 20.4062 56.4062 20.9062C56.4219 21.4062 56.4453 21.7578 56.4766 21.9609C57.0234 21.1328 57.5156 20.1719 57.9531 19.0781C58.3906 17.9688 58.7188 16.8281 58.9375 15.6562C59.1719 14.4688 59.2656 13.2969 59.2188 12.1406C59.1719 10.9688 58.9375 9.90625 58.5156 8.95312C58.25 9.4375 58 10.0469 57.7656 10.7812C57.5312 11.5156 57.3281 12.2656 57.1562 13.0312C56.9844 13.7812 56.8359 14.4922 56.7109 15.1641C56.6016 15.8203 56.5234 16.3281 56.4766 16.6875ZM67.9609 23.6016C67.5859 23.3203 67.3047 22.9297 67.1172 22.4297C66.9453 21.9141 66.8516 21.4375 66.8359 21C66.8359 20.5469 66.8984 20.2031 67.0234 19.9688C67.1484 19.7188 67.3203 19.7109 67.5391 19.9453C67.5078 20.7891 67.6641 21.4297 68.0078 21.8672C68.3516 22.3047 68.7656 22.5781 69.25 22.6875C69.75 22.7969 70.2734 22.7656 70.8203 22.5938C71.3828 22.4219 71.8594 22.1562 72.25 21.7969C72.6562 21.4219 72.9297 20.9688 73.0703 20.4375C73.2266 19.9062 73.1484 19.3359 72.8359 18.7266C72.4297 18.2734 71.9688 17.8359 71.4531 17.4141C70.9531 16.9766 70.4453 16.5469 69.9297 16.125C69.4141 15.7031 68.9141 15.2734 68.4297 14.8359C67.9453 14.3828 67.5156 13.9062 67.1406 13.4062C67.1094 13.375 67.0938 13.3125 67.0938 13.2188C67.0938 13.1094 67.1094 13.0391 67.1406 13.0078C67.25 12.8672 67.4062 12.6484 67.6094 12.3516C67.8125 12.0547 68.0469 11.7188 68.3125 11.3438C68.5781 10.9688 68.8594 10.5781 69.1562 10.1719C69.4531 9.75 69.7344 9.35156 70 8.97656C70.2656 8.60156 70.5 8.26562 70.7031 7.96875C70.9219 7.67188 71.0859 7.45312 71.1953 7.3125C71.4141 7.03125 71.6328 6.86719 71.8516 6.82031C72.0859 6.77344 72.4141 6.80469 72.8359 6.91406C72.8203 6.97656 72.7578 7.11719 72.6484 7.33594C72.5391 7.53906 72.4609 7.67188 72.4141 7.73438C72.2891 7.92188 72.0547 8.25 71.7109 8.71875C71.3672 9.17188 71 9.66406 70.6094 10.1953C70.2188 10.7109 69.8516 11.2031 69.5078 11.6719C69.1641 12.125 68.9219 12.4375 68.7812 12.6094C68.6562 12.7969 68.7031 13.0156 68.9219 13.2656C69.1406 13.5156 69.4531 13.7969 69.8594 14.1094C70.2656 14.4219 70.7266 14.7734 71.2422 15.1641C71.7578 15.5391 72.2422 15.9453 72.6953 16.3828C73.1641 16.8203 73.5547 17.2891 73.8672 17.7891C74.1953 18.2891 74.3672 18.8281 74.3828 19.4062C74.4141 19.9688 74.25 20.5625 73.8906 21.1875C73.5469 21.8125 72.9219 22.4766 72.0156 23.1797C71.7344 23.3984 71.4219 23.5859 71.0781 23.7422C70.75 23.8984 70.4062 24 70.0469 24.0469C69.6875 24.1094 69.3281 24.1094 68.9688 24.0469C68.6094 23.9844 68.2734 23.8359 67.9609 23.6016ZM76.9844 22.3594C77 22.1094 77.0547 21.75 77.1484 21.2812C77.2578 20.7969 77.3516 20.2891 77.4297 19.7578C77.5234 19.2109 77.5781 18.6719 77.5938 18.1406C77.625 17.6094 77.5781 17.1641 77.4531 16.8047C77.3281 16.4297 77.1016 16.1797 76.7734 16.0547C76.4609 15.9297 76 16 75.3906 16.2656C75.0469 16.1719 74.8516 16.0391 74.8047 15.8672C74.7578 15.6953 74.8047 15.5 74.9453 15.2812C75.0859 15.0625 75.2812 14.8281 75.5312 14.5781C75.7969 14.3125 76.0625 14.0469 76.3281 13.7812C76.5938 13.5 76.8281 13.2266 77.0312 12.9609C77.25 12.6953 77.375 12.4375 77.4062 12.1875C77.3906 12.0625 77.3594 11.7891 77.3125 11.3672C77.2812 10.9453 77.2344 10.4609 77.1719 9.91406C77.1094 9.35156 77.0469 8.75781 76.9844 8.13281C76.9375 7.50781 76.8828 6.91406 76.8203 6.35156C76.7578 5.78906 76.7031 5.30469 76.6562 4.89844C76.625 4.47656 76.6016 4.19531 76.5859 4.05469C76.5703 3.85156 76.5703 3.66406 76.5859 3.49219C76.6172 3.30469 76.6797 3.14844 76.7734 3.02344C76.8672 2.89844 76.9922 2.82031 77.1484 2.78906C77.3203 2.74219 77.5391 2.76562 77.8047 2.85938C77.8828 3.45313 77.9609 4.125 78.0391 4.875C78.1172 5.625 78.2031 6.39844 78.2969 7.19531C78.3906 7.99219 78.4922 8.78906 78.6016 9.58594C78.7266 10.3828 78.8672 11.125 79.0234 11.8125C79.1797 11.6875 79.3672 11.4766 79.5859 11.1797C79.8047 10.8672 80.0391 10.5312 80.2891 10.1719C80.5391 9.79688 80.7969 9.42969 81.0625 9.07031C81.3438 8.69531 81.6094 8.39844 81.8594 8.17969C82.1094 7.94531 82.3438 7.8125 82.5625 7.78125C82.7812 7.73438 82.9609 7.85156 83.1016 8.13281C83.1172 8.16406 83.125 8.23438 83.125 8.34375C83.125 8.4375 83.1172 8.50781 83.1016 8.55469C82.8984 9.17969 82.5703 9.75781 82.1172 10.2891C81.6797 10.8203 81.2266 11.3359 80.7578 11.8359C80.3047 12.3359 79.9062 12.8516 79.5625 13.3828C79.2188 13.8984 79.0391 14.4531 79.0234 15.0469C79.1641 15.1719 79.3672 15.375 79.6328 15.6562L81.6719 17.6953C82.0625 18.0703 82.4297 18.4375 82.7734 18.7969C83.1172 19.1406 83.4219 19.4531 83.6875 19.7344L84.2969 20.3203C84.3906 20.4141 84.5391 20.5703 84.7422 20.7891C84.9453 20.9922 85.125 21.2188 85.2812 21.4688C85.4375 21.7188 85.5234 21.9609 85.5391 22.1953C85.5547 22.4297 85.4141 22.625 85.1172 22.7812C85.0859 22.7969 85.0156 22.8047 84.9062 22.8047C84.8125 22.8047 84.75 22.7969 84.7188 22.7812C83.9219 21.7812 83.0391 20.7734 82.0703 19.7578C81.1172 18.7266 80.1016 17.8359 79.0234 17.0859C79.0078 17.2266 78.9844 17.4453 78.9531 17.7422C78.9219 18.0391 78.875 18.375 78.8125 18.75C78.7656 19.125 78.7109 19.5234 78.6484 19.9453C78.6016 20.3516 78.5469 20.7422 78.4844 21.1172C78.4219 21.4922 78.3672 21.8281 78.3203 22.125C78.2734 22.4219 78.2344 22.6406 78.2031 22.7812C78.1875 22.8594 78.1406 22.9844 78.0625 23.1562C78 23.3125 77.9141 23.4688 77.8047 23.625C77.6953 23.7812 77.5703 23.9062 77.4297 24C77.2891 24.0781 77.1406 24.0781 76.9844 24C76.9844 23.9375 76.9766 23.8359 76.9609 23.6953C76.9609 23.5391 76.9609 23.375 76.9609 23.2031C76.9609 23.0156 76.9609 22.8438 76.9609 22.6875C76.9766 22.5312 76.9844 22.4219 76.9844 22.3594ZM57.2188 43.4688C56.5104 43.1979 55.9062 42.7708 55.4062 42.1875C54.9271 41.5833 54.5104 40.9271 54.1562 40.2188C53.8229 39.4896 53.5521 38.7396 53.3438 37.9688C53.1562 37.1979 53 36.5 52.875 35.875C52.8125 35.5417 52.7292 35.0208 52.625 34.3125C52.5417 33.5833 52.4375 32.7812 52.3125 31.9062C52.2083 31.0104 52.0938 30.0729 51.9688 29.0938C51.8646 28.0938 51.7604 27.1562 51.6562 26.2812L51.375 23.875C51.2917 23.1667 51.2396 22.6458 51.2188 22.3125L47.4688 37.5L47.2812 37.8438C47.1979 38.0312 47.0729 38.2396 46.9062 38.4688C46.7604 38.6771 46.5938 38.8854 46.4062 39.0938C46.2188 39.3021 46.0208 39.4583 45.8125 39.5625C45.625 39.6458 45.4375 39.6667 45.25 39.625C45.0625 39.5833 44.8958 39.4062 44.75 39.0938L36.5938 22.8438L34.4375 39.0938C34.3958 39.3854 34.2812 39.5729 34.0938 39.6562C33.9062 39.7188 33.7083 39.7188 33.5 39.6562C33.3125 39.5729 33.1354 39.4375 32.9688 39.25C32.8229 39.0625 32.7708 38.8438 32.8125 38.5938L35.5312 18.5C35.5312 18.4167 35.6042 18.3125 35.75 18.1875C35.8958 18.0625 36.0625 17.9583 36.25 17.875C36.4375 17.7917 36.6146 17.75 36.7812 17.75C36.9688 17.7292 37.0938 17.7917 37.1562 17.9375L45.6875 36.9062L50.6875 17.9375C50.7083 17.875 50.8229 17.7188 51.0312 17.4688C51.2396 17.1979 51.4688 16.9479 51.7188 16.7188C51.9688 16.4896 52.2083 16.3229 52.4375 16.2188C52.6667 16.0938 52.8125 16.1354 52.875 16.3438L53.4062 18.5C53.4688 19.9167 53.5208 21.5625 53.5625 23.4375C53.6042 25.3125 53.7188 27.2396 53.9062 29.2188C54.0938 31.1979 54.3958 33.1458 54.8125 35.0625C55.2292 36.9792 55.8542 38.6875 56.6875 40.1875C56.75 40.2917 56.8542 40.4375 57 40.625C57.1458 40.7917 57.3021 40.9583 57.4688 41.125C57.6354 41.2917 57.8021 41.4479 57.9688 41.5938C58.1354 41.7188 58.25 41.7917 58.3125 41.8125C58.5208 41.8958 58.8021 41.9062 59.1562 41.8438C59.5104 41.7812 59.875 41.7396 60.25 41.7188C60.625 41.6771 60.9792 41.6979 61.3125 41.7812C61.6667 41.8438 61.9271 42.0417 62.0938 42.375C62.2604 42.7083 62.2708 42.9792 62.125 43.1875C62 43.375 61.7812 43.5208 61.4688 43.625C61.1562 43.7292 60.7917 43.7917 60.375 43.8125C59.9583 43.8333 59.5417 43.8333 59.125 43.8125C58.7083 43.7708 58.3229 43.7188 57.9688 43.6562C57.6146 43.5938 57.3646 43.5312 57.2188 43.4688ZM64.1953 43.6016C63.8828 42.9453 63.7109 42.2812 63.6797 41.6094C63.6641 40.9375 63.7031 40.25 63.7969 39.5469C63.8125 39.3281 63.8516 39 63.9141 38.5625C63.9766 38.125 64.0469 37.6406 64.125 37.1094C64.2031 36.5781 64.2891 36.0156 64.3828 35.4219C64.4766 34.8281 64.5625 34.2656 64.6406 33.7344C64.7188 33.2031 64.7891 32.7344 64.8516 32.3281C64.9297 31.9062 64.9844 31.5938 65.0156 31.3906C65.1406 30.7344 65.2734 30.1797 65.4141 29.7266C65.5703 29.2578 65.7734 28.8984 66.0234 28.6484C66.2891 28.3984 66.625 28.2656 67.0312 28.25C67.4531 28.2344 67.9922 28.3359 68.6484 28.5547C68.7266 28.5703 68.8125 28.6328 68.9062 28.7422C69 28.8359 69.0547 28.9062 69.0703 28.9531C69.1016 29.1562 69.1562 29.4688 69.2344 29.8906C69.3281 30.3125 69.4297 30.7969 69.5391 31.3438C69.6484 31.875 69.7578 32.4375 69.8672 33.0312C69.9922 33.6094 70.1094 34.1719 70.2188 34.7188C70.3281 35.25 70.4219 35.7266 70.5 36.1484C70.5938 36.5703 70.6641 36.8828 70.7109 37.0859C70.9453 38.1953 71.2344 38.9688 71.5781 39.4062C71.9219 39.8281 72.2891 40.0469 72.6797 40.0625C73.0703 40.0781 73.4688 39.9531 73.875 39.6875C74.2969 39.4062 74.7109 39.1172 75.1172 38.8203C75.5234 38.5078 75.9062 38.2422 76.2656 38.0234C76.625 37.8047 76.9375 37.7656 77.2031 37.9062C77.2031 38.2031 77.1328 38.4922 76.9922 38.7734C76.8516 39.0547 76.6797 39.3203 76.4766 39.5703C76.2891 39.8047 76.0781 40.0234 75.8438 40.2266C75.6094 40.4297 75.3906 40.6016 75.1875 40.7422C74.3125 41.3203 73.5781 41.625 72.9844 41.6562C72.4062 41.6875 71.9141 41.5547 71.5078 41.2578C71.1016 40.9609 70.7734 40.5547 70.5234 40.0391C70.2734 39.5234 70.0469 39 69.8438 38.4688C69.6562 37.9375 69.4688 37.4688 69.2812 37.0625C69.1094 36.6406 68.8984 36.375 68.6484 36.2656C68.6016 36.4688 68.5 36.8203 68.3438 37.3203C68.2031 37.8203 68.0469 38.3516 67.875 38.9141C67.7031 39.4766 67.5391 40.0078 67.3828 40.5078C67.2266 41.0078 67.1172 41.3594 67.0547 41.5625C67.0234 41.6406 66.9531 41.7891 66.8438 42.0078C66.75 42.2266 66.625 42.4688 66.4688 42.7344C66.3125 42.9844 66.1328 43.2344 65.9297 43.4844C65.7422 43.7188 65.5469 43.8984 65.3438 44.0234C65.1406 44.1641 64.9375 44.2109 64.7344 44.1641C64.5312 44.1172 64.3516 43.9297 64.1953 43.6016ZM65.4141 36.6875C65.3828 36.875 65.3594 37.2188 65.3438 37.7188C65.3438 38.2188 65.3438 38.75 65.3438 39.3125C65.3438 39.875 65.3438 40.4062 65.3438 40.9062C65.3594 41.4062 65.3828 41.7578 65.4141 41.9609C65.9609 41.1328 66.4531 40.1719 66.8906 39.0781C67.3281 37.9688 67.6562 36.8281 67.875 35.6562C68.1094 34.4688 68.2031 33.2969 68.1562 32.1406C68.1094 30.9688 67.875 29.9062 67.4531 28.9531C67.1875 29.4375 66.9375 30.0469 66.7031 30.7812C66.4688 31.5156 66.2656 32.2656 66.0938 33.0312C65.9219 33.7812 65.7734 34.4922 65.6484 35.1641C65.5391 35.8203 65.4609 36.3281 65.4141 36.6875ZM76.7109 43.6016C76.7266 43.3984 76.7344 43.0469 76.7344 42.5469V39.3594C76.7344 38.8594 76.7266 38.5078 76.7109 38.3047C76.6953 38.2109 76.6641 38.0078 76.6172 37.6953C76.5859 37.3828 76.5391 37.0156 76.4766 36.5938C76.4297 36.1719 76.375 35.7266 76.3125 35.2578C76.25 34.7891 76.1875 34.3438 76.125 33.9219C76.0625 33.5 76.0078 33.1328 75.9609 32.8203C75.9297 32.5078 75.9062 32.2969 75.8906 32.1875C75.8594 31.9688 75.8438 31.7422 75.8438 31.5078C75.8594 31.2734 75.9062 31.0703 75.9844 30.8984C76.0625 30.7266 76.1875 30.6094 76.3594 30.5469C76.5312 30.4688 76.7812 30.4844 77.1094 30.5938C77.125 30.9219 77.1484 31.3125 77.1797 31.7656C77.2266 32.2031 77.2812 32.6641 77.3438 33.1484C77.4062 33.6328 77.4844 34.1094 77.5781 34.5781C77.6719 35.0469 77.7891 35.4766 77.9297 35.8672C78.1328 35.2891 78.3281 34.7812 78.5156 34.3438C78.7188 33.8906 78.9453 33.4766 79.1953 33.1016C79.4453 32.7266 79.7266 32.375 80.0391 32.0469C80.3516 31.7031 80.7266 31.3516 81.1641 30.9922C81.7109 30.5391 82.1641 30.3594 82.5234 30.4531C82.8984 30.5312 83.2031 30.7969 83.4375 31.25C83.6875 31.6875 83.8906 32.2578 84.0469 32.9609C84.2031 33.6641 84.3438 34.4141 84.4688 35.2109C84.5938 35.9922 84.7188 36.7656 84.8438 37.5312C84.9844 38.2812 85.1562 38.9375 85.3594 39.5C85.5625 40.0469 85.8125 40.4531 86.1094 40.7188C86.4219 40.9688 86.8125 40.9766 87.2812 40.7422C87.4219 41.1641 87.4375 41.4766 87.3281 41.6797C87.2344 41.8672 87.0625 41.9766 86.8125 42.0078C86.5781 42.0234 86.2969 41.9609 85.9688 41.8203C85.6406 41.6641 85.3125 41.4609 84.9844 41.2109C84.6719 40.9453 84.3906 40.6328 84.1406 40.2734C83.8906 39.9141 83.7188 39.5312 83.625 39.125C83.5625 38.8438 83.5078 38.3828 83.4609 37.7422C83.4141 37.1016 83.3438 36.4141 83.25 35.6797C83.1562 34.9453 83.0078 34.2266 82.8047 33.5234C82.6172 32.8047 82.3438 32.2344 81.9844 31.8125L80.3438 33.4062C80.2969 33.4688 80.1797 33.75 79.9922 34.25C79.8203 34.75 79.625 35.3281 79.4062 35.9844C79.1875 36.625 78.9766 37.2812 78.7734 37.9531C78.5703 38.6094 78.4219 39.1406 78.3281 39.5469C78.2969 39.6875 78.2578 39.9531 78.2109 40.3438C78.1641 40.7188 78.1172 41.125 78.0703 41.5625C78.0234 42 77.9844 42.4141 77.9531 42.8047C77.9375 43.1797 77.9297 43.4453 77.9297 43.6016C77.7891 43.8828 77.5859 44.0234 77.3203 44.0234C77.0547 44.0234 76.8516 43.8828 76.7109 43.6016ZM87.9609 43.6016C87.6484 42.9453 87.4766 42.2812 87.4453 41.6094C87.4297 40.9375 87.4688 40.25 87.5625 39.5469C87.5781 39.3281 87.6172 39 87.6797 38.5625C87.7422 38.125 87.8125 37.6406 87.8906 37.1094C87.9688 36.5781 88.0547 36.0156 88.1484 35.4219C88.2422 34.8281 88.3281 34.2656 88.4062 33.7344C88.4844 33.2031 88.5547 32.7344 88.6172 32.3281C88.6953 31.9062 88.75 31.5938 88.7812 31.3906C88.9062 30.7344 89.0391 30.1797 89.1797 29.7266C89.3359 29.2578 89.5391 28.8984 89.7891 28.6484C90.0547 28.3984 90.3906 28.2656 90.7969 28.25C91.2188 28.2344 91.7578 28.3359 92.4141 28.5547C92.4922 28.5703 92.5781 28.6328 92.6719 28.7422C92.7656 28.8359 92.8203 28.9062 92.8359 28.9531C92.8672 29.1562 92.9219 29.4688 93 29.8906C93.0938 30.3125 93.1953 30.7969 93.3047 31.3438C93.4141 31.875 93.5234 32.4375 93.6328 33.0312C93.7578 33.6094 93.875 34.1719 93.9844 34.7188C94.0938 35.25 94.1875 35.7266 94.2656 36.1484C94.3594 36.5703 94.4297 36.8828 94.4766 37.0859C94.7109 38.1953 95 38.9688 95.3438 39.4062C95.6875 39.8281 96.0547 40.0469 96.4453 40.0625C96.8359 40.0781 97.2344 39.9531 97.6406 39.6875C98.0625 39.4062 98.4766 39.1172 98.8828 38.8203C99.2891 38.5078 99.6719 38.2422 100.031 38.0234C100.391 37.8047 100.703 37.7656 100.969 37.9062C100.969 38.2031 100.898 38.4922 100.758 38.7734C100.617 39.0547 100.445 39.3203 100.242 39.5703C100.055 39.8047 99.8438 40.0234 99.6094 40.2266C99.375 40.4297 99.1562 40.6016 98.9531 40.7422C98.0781 41.3203 97.3438 41.625 96.75 41.6562C96.1719 41.6875 95.6797 41.5547 95.2734 41.2578C94.8672 40.9609 94.5391 40.5547 94.2891 40.0391C94.0391 39.5234 93.8125 39 93.6094 38.4688C93.4219 37.9375 93.2344 37.4688 93.0469 37.0625C92.875 36.6406 92.6641 36.375 92.4141 36.2656C92.3672 36.4688 92.2656 36.8203 92.1094 37.3203C91.9688 37.8203 91.8125 38.3516 91.6406 38.9141C91.4688 39.4766 91.3047 40.0078 91.1484 40.5078C90.9922 41.0078 90.8828 41.3594 90.8203 41.5625C90.7891 41.6406 90.7188 41.7891 90.6094 42.0078C90.5156 42.2266 90.3906 42.4688 90.2344 42.7344C90.0781 42.9844 89.8984 43.2344 89.6953 43.4844C89.5078 43.7188 89.3125 43.8984 89.1094 44.0234C88.9062 44.1641 88.7031 44.2109 88.5 44.1641C88.2969 44.1172 88.1172 43.9297 87.9609 43.6016ZM89.1797 36.6875C89.1484 36.875 89.125 37.2188 89.1094 37.7188C89.1094 38.2188 89.1094 38.75 89.1094 39.3125C89.1094 39.875 89.1094 40.4062 89.1094 40.9062C89.125 41.4062 89.1484 41.7578 89.1797 41.9609C89.7266 41.1328 90.2188 40.1719 90.6562 39.0781C91.0938 37.9688 91.4219 36.8281 91.6406 35.6562C91.875 34.4688 91.9688 33.2969 91.9219 32.1406C91.875 30.9688 91.6406 29.9062 91.2188 28.9531C90.9531 29.4375 90.7031 30.0469 90.4688 30.7812C90.2344 31.5156 90.0312 32.2656 89.8594 33.0312C89.6875 33.7812 89.5391 34.4922 89.4141 35.1641C89.3047 35.8203 89.2266 36.3281 89.1797 36.6875ZM103.289 50.9141C102.805 50.4297 102.547 49.8281 102.516 49.1094C102.5 48.4062 102.625 47.6406 102.891 46.8125C103.156 46 103.523 45.1641 103.992 44.3047C104.461 43.4453 104.945 42.6172 105.445 41.8203C105.945 41.0078 106.406 40.2656 106.828 39.5938C107.266 38.9062 107.586 38.3438 107.789 37.9062C107.898 37.6562 107.922 37.3047 107.859 36.8516C107.812 36.3828 107.727 35.9141 107.602 35.4453C107.492 34.9609 107.367 34.5234 107.227 34.1328C107.102 33.7422 107.016 33.5 106.969 33.4062L106.57 33.8281L102.094 41.5625C102.062 41.5938 101.992 41.6484 101.883 41.7266C101.789 41.8047 101.68 41.8828 101.555 41.9609C101.43 42.0391 101.297 42.1172 101.156 42.1953C101.031 42.2734 100.938 42.3281 100.875 42.3594C100.375 42.5625 100 42.5391 99.75 42.2891C99.5156 42.0391 99.3906 41.6406 99.375 41.0938C99.375 40.5312 99.4609 39.8594 99.6328 39.0781C99.8203 38.2812 100.078 37.4453 100.406 36.5703C100.75 35.6953 101.148 34.8125 101.602 33.9219C102.055 33.0312 102.547 32.2109 103.078 31.4609C103.625 30.6953 104.188 30.0391 104.766 29.4922C105.359 28.9453 105.953 28.5781 106.547 28.3906C106.844 28.4844 106.992 28.6094 106.992 28.7656C107.008 28.9062 106.93 29.0703 106.758 29.2578C106.602 29.4297 106.383 29.6172 106.102 29.8203C105.836 30.0234 105.555 30.2266 105.258 30.4297C104.977 30.6172 104.711 30.7969 104.461 30.9688C104.227 31.1406 104.07 31.2891 103.992 31.4141C103.617 32.2422 103.227 33.0234 102.82 33.7578C102.414 34.4922 102.047 35.2266 101.719 35.9609C101.406 36.6953 101.164 37.4531 100.992 38.2344C100.82 39 100.781 39.8359 100.875 40.7422L101.273 40.3203C101.852 39.6328 102.375 38.8438 102.844 37.9531C103.312 37.0625 103.742 36.1719 104.133 35.2812C104.523 34.375 104.883 33.5156 105.211 32.7031C105.539 31.875 105.844 31.1875 106.125 30.6406C106.406 30.0938 106.68 29.7266 106.945 29.5391C107.211 29.3516 107.469 29.4453 107.719 29.8203C107.984 30.1953 108.258 30.8984 108.539 31.9297C108.82 32.9609 109.117 34.4062 109.43 36.2656C109.508 36.2031 109.656 36.0938 109.875 35.9375C110.109 35.7656 110.352 35.5938 110.602 35.4219C110.867 35.25 111.117 35.0938 111.352 34.9531C111.586 34.7969 111.75 34.6953 111.844 34.6484C111.922 34.6172 112.062 34.6016 112.266 34.6016C112.469 34.6016 112.602 34.6172 112.664 34.6484C112.602 34.9297 112.422 35.2578 112.125 35.6328C111.844 35.9922 111.531 36.3359 111.188 36.6641C110.859 36.9922 110.555 37.2812 110.273 37.5312C109.992 37.7656 109.844 37.8906 109.828 37.9062C109.828 38.0625 109.82 38.2969 109.805 38.6094C109.805 38.9219 109.789 39.2812 109.758 39.6875C109.742 40.0938 109.719 40.5156 109.688 40.9531C109.656 41.3906 109.625 41.8125 109.594 42.2188C109.562 42.625 109.531 42.9844 109.5 43.2969L109.43 44C109.398 44.2031 109.281 44.5703 109.078 45.1016C108.891 45.6484 108.648 46.2578 108.352 46.9297C108.055 47.6016 107.711 48.2734 107.32 48.9453C106.93 49.6172 106.516 50.1719 106.078 50.6094C105.641 51.0625 105.18 51.3438 104.695 51.4531C104.227 51.5625 103.758 51.3828 103.289 50.9141ZM104.531 46.8594C104.516 46.9844 104.5 47.1953 104.484 47.4922C104.484 47.8047 104.484 48.1328 104.484 48.4766C104.484 48.8203 104.484 49.1484 104.484 49.4609C104.5 49.7734 104.516 49.9844 104.531 50.0938C105.359 49.75 106.047 49.1719 106.594 48.3594C107.141 47.5469 107.555 46.6406 107.836 45.6406C108.117 44.6562 108.281 43.6484 108.328 42.6172C108.391 41.5859 108.344 40.6875 108.188 39.9219C107.734 40.2969 107.305 40.7656 106.898 41.3281C106.492 41.875 106.125 42.4688 105.797 43.1094C105.469 43.7344 105.195 44.375 104.977 45.0312C104.758 45.6875 104.609 46.2969 104.531 46.8594ZM116.367 43.6016C115.711 43.0859 115.188 42.4844 114.797 41.7969C114.422 41.0938 114.133 40.3438 113.93 39.5469C113.836 39.625 113.695 39.7109 113.508 39.8047C113.32 39.8984 113.125 39.9766 112.922 40.0391C112.734 40.1016 112.547 40.1484 112.359 40.1797C112.172 40.1953 112.031 40.1719 111.938 40.1094C111.859 40.0469 111.836 39.9453 111.867 39.8047C111.914 39.6484 112.062 39.4219 112.312 39.125C112.344 39.0781 112.438 38.9766 112.594 38.8203C112.766 38.6641 112.945 38.5 113.133 38.3281C113.32 38.1406 113.492 37.9688 113.648 37.8125C113.805 37.6406 113.898 37.5312 113.93 37.4844C114.102 37.0938 114.203 36.6641 114.234 36.1953C114.281 35.7266 114.305 35.2422 114.305 34.7422C114.32 34.2266 114.352 33.7188 114.398 33.2188C114.445 32.7188 114.562 32.25 114.75 31.8125C114.859 31.5625 115.062 31.2578 115.359 30.8984C115.672 30.5234 116.016 30.1641 116.391 29.8203C116.781 29.4766 117.172 29.1719 117.562 28.9062C117.969 28.625 118.312 28.4531 118.594 28.3906C118.891 28.3281 119.102 28.3984 119.227 28.6016C119.367 28.8047 119.367 29.1953 119.227 29.7734C119.055 30.4609 118.789 31.1328 118.43 31.7891C118.086 32.4297 117.727 33.0703 117.352 33.7109C116.977 34.3359 116.617 34.9609 116.273 35.5859C115.945 36.2109 115.711 36.8438 115.57 37.4844C115.492 37.8281 115.453 38.25 115.453 38.75C115.453 39.2344 115.508 39.7188 115.617 40.2031C115.727 40.6875 115.906 41.1328 116.156 41.5391C116.406 41.9297 116.75 42.2031 117.188 42.3594C117.688 42.5469 118.188 42.5938 118.688 42.5C119.188 42.4062 119.672 42.2266 120.141 41.9609C120.625 41.6953 121.086 41.3672 121.523 40.9766C121.961 40.5703 122.367 40.1562 122.742 39.7344C123.117 39.3125 123.453 38.9062 123.75 38.5156C124.047 38.1094 124.297 37.7656 124.5 37.4844L124.898 37.9062C125.008 38 124.938 38.2656 124.688 38.7031C124.453 39.1406 124.102 39.6406 123.633 40.2031C123.18 40.75 122.641 41.3125 122.016 41.8906C121.391 42.4688 120.742 42.9531 120.07 43.3438C119.414 43.7344 118.758 43.9766 118.102 44.0703C117.461 44.1641 116.883 44.0078 116.367 43.6016ZM115.57 33.4062C115.555 33.4844 115.539 33.625 115.523 33.8281C115.523 34.0156 115.523 34.2188 115.523 34.4375C115.523 34.6562 115.523 34.8594 115.523 35.0469C115.539 35.2344 115.555 35.3672 115.57 35.4453C116.07 34.5859 116.539 33.6719 116.977 32.7031C117.414 31.7344 117.758 30.7578 118.008 29.7734C117.648 29.8984 117.32 30.0938 117.023 30.3594C116.742 30.6094 116.5 30.9062 116.297 31.25C116.094 31.5781 115.93 31.9297 115.805 32.3047C115.695 32.6797 115.617 33.0469 115.57 33.4062ZM126.094 43.7422C125.844 44.2578 125.633 44.5156 125.461 44.5156C125.289 44.5312 125.141 44.3594 125.016 44C124.906 43.6562 124.812 43.1641 124.734 42.5234C124.672 41.8828 124.625 41.1719 124.594 40.3906C124.578 39.6094 124.578 38.7891 124.594 37.9297C124.609 37.0703 124.633 36.2422 124.664 35.4453C124.711 34.6484 124.766 33.9219 124.828 33.2656C124.891 32.5938 124.953 32.0703 125.016 31.6953C125.094 31.3047 125.172 31.0938 125.25 31.0625C125.328 31.0312 125.406 31.2422 125.484 31.6953C125.984 31.3203 126.523 30.9688 127.102 30.6406C127.68 30.2969 128.273 30.0156 128.883 29.7969C129.508 29.5625 130.133 29.4141 130.758 29.3516C131.398 29.2891 132.016 29.3438 132.609 29.5156C132.672 29.7188 132.68 29.9531 132.633 30.2188C132.586 30.4844 132.438 30.6562 132.188 30.7344C131.938 30.6875 131.609 30.6641 131.203 30.6641C130.797 30.6641 130.367 30.6953 129.914 30.7578C129.461 30.8203 129.008 30.9219 128.555 31.0625C128.102 31.2031 127.688 31.3906 127.312 31.625C126.953 31.8438 126.656 32.1172 126.422 32.4453C126.203 32.7578 126.094 33.1328 126.094 33.5703V43.7422Z" fill="white"/>
<rect x="0.187683" y="8.75027" width="23.684" height="4" rx="2" transform="rotate(-11.5703 0.187683 8.75027)" fill="white"/>
</svg>
